# xmcd
#
# Track frame offsets:
#	150
#	53982
#	76044
#	96811
#	115153
#	133230
#
# Disc length: 2030 seconds
#
# Revision: 0
# Processed by: cddbd v1.5PL3 Copyright (c) Steve Scherf et al.
# Submitted via: dBpowerAMP V4.0
#
DISCID=4707ec06
DTITLE=Paul Bibbins - A One Man  Rock Band Like No Other
DYEAR=1900
DGENRE=Blues Rock
TTITLE0=Stone Cold Monday
TTITLE1=Born Under A Bad Sign
TTITLE2=Insight
TTITLE3=Angel Blue
TTITLE4=Love Don't Dare
TTITLE5=Soft Rains Will Come
EXTD=
EXTT0=
EXTT1=
EXTT2=
EXTT3=
EXTT4=
EXTT5=
PLAYORDER=
